<svg version="1.2" xmlns="http://www.w3.org/2000/svg" viewBox="0 0 711 581" width="711" height="581">
	<title>5265662-ai</title>
	<defs>
		<linearGradient id="g1" x2="1" gradientUnits="userSpaceOnUse" gradientTransform="matrix(0,309.594,-309.594,0,482.142,110.844)">
			<stop offset=".096" stop-color="#ffc053" stop-opacity=".4"/>
			<stop offset="1" stop-color="#ffc053" stop-opacity="0"/>
		</linearGradient>
		<linearGradient id="g2" x2="1" gradientUnits="userSpaceOnUse" gradientTransform="matrix(0,195.757,-195.757,0,588.984,142.664)">
			<stop offset=".096" stop-color="#ffc053" stop-opacity=".4"/>
			<stop offset="1" stop-color="#ffc053" stop-opacity="0"/>
		</linearGradient>
		<linearGradient id="g3" x2="1" gradientUnits="userSpaceOnUse" gradientTransform="matrix(0,225.812,-225.811,0,590.273,203.861)">
			<stop offset=".146" stop-color="#4258ff" stop-opacity=".5"/>
			<stop offset=".988" stop-color="#4258ff" stop-opacity="0"/>
		</linearGradient>
		<linearGradient id="g4" x2="1" gradientUnits="userSpaceOnUse" gradientTransform="matrix(0,158.207,-158.207,0,616.503,50.335)">
			<stop offset=".146" stop-color="#4258ff" stop-opacity=".5"/>
			<stop offset=".988" stop-color="#4258ff" stop-opacity="0"/>
		</linearGradient>
		<linearGradient id="g5" x2="1" gradientUnits="userSpaceOnUse" gradientTransform="matrix(0,137.443,-137.443,0,237.826,293.455)">
			<stop offset=".146" stop-color="#4258ff" stop-opacity=".5"/>
			<stop offset=".988" stop-color="#4258ff" stop-opacity="0"/>
		</linearGradient>
		<linearGradient id="g6" x2="1" gradientUnits="userSpaceOnUse" gradientTransform="matrix(0,241.927,-241.927,0,326.898,1.915)">
			<stop offset=".096" stop-color="#ffc053" stop-opacity=".4"/>
			<stop offset="1" stop-color="#ffc053" stop-opacity="0"/>
		</linearGradient>
		<linearGradient id="g7" x2="1" gradientUnits="userSpaceOnUse" gradientTransform="matrix(0,23.418,-27.497,0,392.289,301.045)">
			<stop offset=".337" stop-color="#ffc053"/>
			<stop offset=".847" stop-color="#eda01a"/>
		</linearGradient>
		<linearGradient id="g8" x2="1" gradientUnits="userSpaceOnUse" gradientTransform="matrix(0,3.688,-3.01,0,329.828,232.837)">
			<stop offset="0" stop-color="#000000" stop-opacity=".71"/>
			<stop offset=".973" stop-color="#000000" stop-opacity="0"/>
		</linearGradient>
		<linearGradient id="g9" x2="1" gradientUnits="userSpaceOnUse" gradientTransform="matrix(0,3.688,-3.01,0,377.693,232.837)">
			<stop offset="0" stop-color="#000000" stop-opacity=".71"/>
			<stop offset=".973" stop-color="#000000" stop-opacity="0"/>
		</linearGradient>
		<linearGradient id="g10" x2="1" gradientUnits="userSpaceOnUse" gradientTransform="matrix(0,3.688,-3.01,0,329.828,277.28)">
			<stop offset="0" stop-color="#000000" stop-opacity=".71"/>
			<stop offset=".973" stop-color="#000000" stop-opacity="0"/>
		</linearGradient>
		<linearGradient id="g11" x2="1" gradientUnits="userSpaceOnUse" gradientTransform="matrix(0,3.688,-3.01,0,377.693,277.28)">
			<stop offset="0" stop-color="#000000" stop-opacity=".71"/>
			<stop offset=".973" stop-color="#000000" stop-opacity="0"/>
		</linearGradient>
		<linearGradient id="g12" x2="1" gradientUnits="userSpaceOnUse" gradientTransform="matrix(0,35.049,-171.193,0,353.8,342.164)">
			<stop offset=".17" stop-color="#ffc053"/>
			<stop offset=".847" stop-color="#eda01a"/>
		</linearGradient>
		<linearGradient id="g13" x2="1" gradientUnits="userSpaceOnUse" gradientTransform="matrix(0,22.706,-244.935,0,506.572,244.708)">
			<stop offset="0" stop-color="#ffc053"/>
			<stop offset="1" stop-color="#eda01a"/>
		</linearGradient>
		<linearGradient id="g14" x2="1" gradientUnits="userSpaceOnUse" gradientTransform="matrix(0,-60.175,23.41,0,425.026,245.06)">
			<stop offset=".292" stop-color="#4258ff"/>
			<stop offset="1" stop-color="#999fc7"/>
		</linearGradient>
		<linearGradient id="g15" x2="1" gradientUnits="userSpaceOnUse" gradientTransform="matrix(19.895,0,0,2.491,520.925,247.515)">
			<stop offset="0" stop-color="#4258ff"/>
			<stop offset="1" stop-color="#999fc7"/>
		</linearGradient>
		<linearGradient id="g16" x2="1" gradientUnits="userSpaceOnUse" gradientTransform="matrix(0,-25.359,22.213,0,514.465,244.333)">
			<stop offset="0" stop-color="#4258ff"/>
			<stop offset="1" stop-color="#999fc7"/>
		</linearGradient>
		<linearGradient id="g17" x2="1" gradientUnits="userSpaceOnUse" gradientTransform="matrix(-23.015,-29.607,31.633,-24.59,292.907,96.764)">
			<stop offset="0" stop-color="#4258ff"/>
			<stop offset="1" stop-color="#999fc7"/>
		</linearGradient>
	</defs>
	<style>
		tspan { white-space:pre } 
		.s0 { fill: #dcdced } 
		.s1 { fill: url(#g1) } 
		.s2 { fill: url(#g2) } 
		.s3 { fill: url(#g3) } 
		.s4 { fill: url(#g4) } 
		.s5 { fill: url(#g5) } 
		.s6 { fill: url(#g6) } 
		.s7 { fill: #7a7fa1 } 
		.s8 { fill: #9fa5d1 } 
		.s9 { opacity: .2;fill: #000000 } 
		.s10 { fill: #ffc053 } 
		.s11 { fill: url(#g7) } 
		.s12 { fill: none;stroke: #d6a146;stroke-miterlimit:10;stroke-width: 1 } 
		.s13 { fill: url(#g8) } 
		.s14 { fill: #ffffff } 
		.s15 { fill: #ebebeb } 
		.s16 { fill: url(#g9) } 
		.s17 { fill: url(#g10) } 
		.s18 { fill: url(#g11) } 
		.s19 { fill: url(#g12) } 
		.s20 { fill: #6a6f8c } 
		.s21 { fill: url(#g13) } 
		.s22 { fill: url(#g14) } 
		.s23 { fill: #3142bf } 
		.s24 { fill: url(#g15) } 
		.s25 { fill: url(#g16) } 
		.s26 { fill: none;stroke: #6a6f8c;stroke-miterlimit:10 } 
		.s27 { fill: #f7f7f7 } 
		.s28 { fill: url(#g17) } 
	</style>
	<g id="BACKGROUND">
	</g>
	<g id="&lt;Group&gt;">
		<g id="&lt;Group&gt;">
			<path id="&lt;Path&gt;" class="s0" d="m650.4 489c0 24.5-127.8 44.3-285.4 44.3-157.7 0-285.5-19.8-285.5-44.3 0-24.5 127.8-44.4 285.5-44.4 157.6 0 285.4 19.9 285.4 44.4z"/>
		</g>
		<path id="&lt;Path&gt;" class="s1" d="m482.1 262.5c0 72.6-58.8 131.5-131.4 131.5-72.6 0-131.5-58.9-131.5-131.5 0-72.6 58.9-131.5 131.5-131.5 72.6 0 131.4 58.9 131.4 131.5z"/>
		<path id="&lt;Path&gt;" class="s2" d="m589 238.6c0 45.9-37.2 83.1-83.1 83.1-46 0-83.2-37.2-83.2-83.1 0-45.9 37.2-83.2 83.2-83.2 45.9 0 83.1 37.3 83.1 83.2z"/>
		<path id="&lt;Path&gt;" class="s3" d="m590.3 368.6c0 36.4-29.6 66-66.1 66-36.4 0-66-29.6-66-66 0-36.5 29.6-66.1 66-66.1 36.5 0 66.1 29.6 66.1 66.1z"/>
		<path id="&lt;Path&gt;" class="s4" d="m616.5 127.8c0 37.1-30.1 67.2-67.2 67.2-37.1 0-67.2-30.1-67.2-67.2 0-37.1 30.1-67.1 67.2-67.1 37.1 0 67.2 30 67.2 67.1z"/>
		<path id="&lt;Path&gt;" class="s5" d="m237.8 360.8c0 32.2-26.1 58.3-58.3 58.3-32.3 0-58.4-26.1-58.4-58.3 0-32.2 26.1-58.4 58.4-58.4 32.2 0 58.3 26.2 58.3 58.4z"/>
		<path id="&lt;Path&gt;" class="s6" d="m326.9 120.4c0 56.8-46 102.8-102.7 102.8-56.8 0-102.8-46-102.8-102.8 0-56.7 46-102.7 102.8-102.7 56.7 0 102.7 46 102.7 102.7z"/>
		<g id="&lt;Group&gt;">
			<g id="&lt;Group&gt;">
				<g id="&lt;Group&gt;">
					<g id="&lt;Group&gt;">
						<g id="&lt;Group&gt;">
							<path id="&lt;Path&gt;" class="s7" d="m317.1 469.2l-1.9 1.6h-3.8l0.9-92.5h9.2z"/>
						</g>
						<g id="&lt;Group&gt;">
							<path id="&lt;Path&gt;" class="s8" d="m315.2 470.8h-5.1l-0.9-92.5h9.2z"/>
						</g>
						<path id="&lt;Path&gt;" class="s9" d="m312.3 378.3h-3.1l0.1 7.8 11.7 3.9 0.5-11.7h-3.1z"/>
					</g>
					<g id="&lt;Group&gt;">
						<g id="&lt;Group&gt;">
							<path id="&lt;Path&gt;" class="s7" d="m384.2 469.2l2 1.6h3.7l-0.9-92.5h-9.2z"/>
						</g>
						<g id="&lt;Group&gt;">
							<path id="&lt;Path&gt;" class="s8" d="m386.2 470.8h5.1l0.8-92.5h-9.2z"/>
						</g>
						<path id="&lt;Path&gt;" class="s9" d="m389 378.3h3.1v7.8l-11.7 3.9-0.6-11.7h3.1z"/>
					</g>
				</g>
				<g id="&lt;Group&gt;">
					<g id="&lt;Group&gt;">
						<g id="&lt;Group&gt;">
							<path id="&lt;Path&gt;" class="s7" d="m287.2 508.7l-2.6 2.2h-5.2l6.3-132.6h12.5z"/>
						</g>
						<g id="&lt;Group&gt;">
							<path id="&lt;Path&gt;" class="s8" d="m284.6 510.9h-7l3.9-132.6h12.4z"/>
						</g>
						<path id="&lt;Path&gt;" class="s9" d="m285.7 378.3h-4.2l-0.3 10 15.6 5.7 1.4-15.7h-4.3z"/>
					</g>
					<g id="&lt;Group&gt;">
						<g id="&lt;Group&gt;">
							<path id="&lt;Path&gt;" class="s7" d="m414.2 508.7l2.6 2.2h5.1l-6.2-132.6h-12.5z"/>
						</g>
						<g id="&lt;Group&gt;">
							<path id="&lt;Path&gt;" class="s8" d="m416.8 510.9h6.9l-3.8-132.6h-12.5z"/>
						</g>
						<path id="&lt;Path&gt;" class="s9" d="m415.7 378.3h4.2l0.3 10-15.7 5.7-1.3-15.7h4.2z"/>
					</g>
				</g>
				<g id="&lt;Group&gt;">
					<path id="&lt;Path&gt;" class="s7" d="m314.9 337.3h-7.4v-27.8h7.4z"/>
					<path id="&lt;Path&gt;" class="s7" d="m393.9 337.3h-7.5v-27.8h7.5z"/>
				</g>
				<g id="&lt;Group&gt;">
					<path id="&lt;Path&gt;" class="s7" d="m400.2 349.1h-99l-25.5 27.2h150z"/>
				</g>
				<g id="&lt;Group&gt;">
					<path id="&lt;Path&gt;" class="s10" d="m389.2 320.9h-77.1c-7.3 0-13.4-5.7-13.8-13l-4.9-78.8c-1.2-19.1 14-35.3 33.1-35.3h48.3c19.2 0 34.4 16.2 33.2 35.3l-4.9 78.8c-0.5 7.3-6.6 13-13.9 13z"/>
					<path id="&lt;Path&gt;" class="s11" d="m403.1 299.2c-0.5 7.3-6.6 13-13.9 13h-77.1c-7.3 0-13.4-5.7-13.8-13l-4.8-76q-0.3 2.9-0.1 5.9l4.9 78.8c0.4 7.3 6.5 13 13.8 13h77.1c7.3 0 13.4-5.7 13.9-13l4.9-78.8q0.2-3-0.2-5.9z"/>
					<g id="&lt;Group&gt;">
						<g id="&lt;Group&gt;">
							<g id="&lt;Group&gt;">
								<g id="&lt;Group&gt;">
									<g id="&lt;Group&gt;">
										<path id="&lt;Path&gt;" class="s12" d="m314.9 221.1c0 0 6 2.2 11.8 11.8"/>
										<path id="&lt;Path&gt;" class="s12" d="m338.6 221.1c0 0-6 2.2-11.9 11.8"/>
									</g>
									<g id="&lt;Group&gt;">
										<path id="&lt;Path&gt;" class="s12" d="m326.7 232.9c0 0-8.5 4.2-11.4 11.3"/>
										<path id="&lt;Path&gt;" class="s12" d="m326.7 232.9c0 0 8.6 4.2 11.5 11.3"/>
									</g>
								</g>
								<g id="&lt;Group&gt;">
									<path id="&lt;Path&gt;" class="s13" d="m328.8 233.5c0 1.5-1 2.7-2.2 2.7-1.2 0-2.1-1.2-2.1-2.7 0-1.4 0.9-2.6 2.1-2.6 1.2 0 2.2 1.2 2.2 2.6z"/>
									<path id="&lt;Path&gt;" class="s14" d="m328.8 233.1c0 1.2-1 2.1-2.2 2.1-1.2 0-2.1-0.9-2.1-2.1 0-1.2 0.9-2.2 2.1-2.2 1.2 0 2.2 1 2.2 2.2z"/>
									<path id="&lt;Path&gt;" class="s15" d="m326.6 234.7c-1.1 0-2-0.8-2.1-1.9q0 0.1 0 0.3c0 1.2 0.9 2.1 2.1 2.1 1.2 0 2.2-0.9 2.2-2.1q-0.1-0.2-0.1-0.3c-0.1 1.1-1 1.9-2.1 1.9z"/>
								</g>
							</g>
							<g id="&lt;Group&gt;">
								<g id="&lt;Group&gt;">
									<g id="&lt;Group&gt;">
										<path id="&lt;Path&gt;" class="s12" d="m362.8 221.1c0 0 6 2.2 11.8 11.8"/>
										<path id="&lt;Path&gt;" class="s12" d="m386.4 221.1c0 0-5.9 2.2-11.8 11.8"/>
									</g>
									<g id="&lt;Group&gt;">
										<path id="&lt;Path&gt;" class="s12" d="m374.6 232.9c0 0-8.5 4.2-11.4 11.3"/>
										<path id="&lt;Path&gt;" class="s12" d="m374.6 232.9c0 0 8.6 4.2 11.4 11.3"/>
									</g>
								</g>
								<g id="&lt;Group&gt;">
									<path id="&lt;Path&gt;" class="s16" d="m376.6 233.5c0 1.5-0.9 2.7-2.1 2.7-1.2 0-2.2-1.2-2.2-2.7 0-1.4 1-2.6 2.2-2.6 1.2 0 2.1 1.2 2.1 2.6z"/>
									<path id="&lt;Path&gt;" class="s14" d="m376.6 233.1c0 1.2-0.9 2.1-2.1 2.1-1.2 0-2.2-0.9-2.2-2.1 0-1.2 1-2.2 2.2-2.2 1.2 0 2.1 1 2.1 2.2z"/>
									<path id="&lt;Path&gt;" class="s15" d="m374.5 234.7c-1.1 0-2-0.8-2.1-1.9q-0.1 0.1-0.1 0.3c0 1.2 1 2.1 2.2 2.1 1.2 0 2.1-0.9 2.1-2.1q0-0.2 0-0.3c-0.1 1.1-1 1.9-2.1 1.9z"/>
								</g>
							</g>
						</g>
						<g id="&lt;Group&gt;">
							<g id="&lt;Group&gt;">
								<g id="&lt;Group&gt;">
									<g id="&lt;Group&gt;">
										<path id="&lt;Path&gt;" class="s12" d="m314.9 265.5c0 0 6 2.3 11.8 11.8"/>
										<path id="&lt;Path&gt;" class="s12" d="m338.6 265.5c0 0-6 2.3-11.9 11.8"/>
									</g>
									<g id="&lt;Group&gt;">
										<path id="&lt;Path&gt;" class="s12" d="m326.7 277.3c0 0-8.5 4.3-11.4 11.4"/>
										<path id="&lt;Path&gt;" class="s12" d="m326.7 277.3c0 0 8.6 4.3 11.5 11.4"/>
									</g>
								</g>
								<g id="&lt;Group&gt;">
									<path id="&lt;Path&gt;" class="s17" d="m328.8 278c0 1.4-1 2.6-2.2 2.6-1.2 0-2.1-1.2-2.1-2.6 0-1.5 0.9-2.6 2.1-2.6 1.2 0 2.2 1.1 2.2 2.6z"/>
									<path id="&lt;Path&gt;" class="s14" d="m328.8 277.5c0 1.2-1 2.2-2.2 2.2-1.2 0-2.1-1-2.1-2.2 0-1.2 0.9-2.1 2.1-2.1 1.2 0 2.2 0.9 2.2 2.1z"/>
									<path id="&lt;Path&gt;" class="s15" d="m326.6 279.1c-1.1 0-2-0.8-2.1-1.9q0 0.2 0 0.3c0 1.2 0.9 2.2 2.1 2.2 1.2 0 2.2-1 2.2-2.2q-0.1-0.1-0.1-0.3c-0.1 1.1-1 1.9-2.1 1.9z"/>
								</g>
							</g>
							<g id="&lt;Group&gt;">
								<g id="&lt;Group&gt;">
									<g id="&lt;Group&gt;">
										<path id="&lt;Path&gt;" class="s12" d="m362.8 265.5c0 0 6 2.3 11.8 11.8"/>
										<path id="&lt;Path&gt;" class="s12" d="m386.4 265.5c0 0-5.9 2.3-11.8 11.8"/>
									</g>
									<g id="&lt;Group&gt;">
										<path id="&lt;Path&gt;" class="s12" d="m374.6 277.3c0 0-8.5 4.3-11.4 11.4"/>
										<path id="&lt;Path&gt;" class="s12" d="m374.6 277.3c0 0 8.6 4.3 11.4 11.4"/>
									</g>
								</g>
								<g id="&lt;Group&gt;">
									<path id="&lt;Path&gt;" class="s18" d="m376.6 278c0 1.4-0.9 2.6-2.1 2.6-1.2 0-2.2-1.2-2.2-2.6 0-1.5 1-2.6 2.2-2.6 1.2 0 2.1 1.1 2.1 2.6z"/>
									<path id="&lt;Path&gt;" class="s14" d="m376.6 277.5c0 1.2-0.9 2.2-2.1 2.2-1.2 0-2.2-1-2.2-2.2 0-1.2 1-2.1 2.2-2.1 1.2 0 2.1 0.9 2.1 2.1z"/>
									<path id="&lt;Path&gt;" class="s15" d="m374.5 279.1c-1.1 0-2-0.8-2.1-1.9q-0.1 0.2-0.1 0.3c0 1.2 1 2.2 2.2 2.2 1.2 0 2.1-1 2.1-2.2q0-0.1 0-0.3c-0.1 1.1-1 1.9-2.1 1.9z"/>
								</g>
							</g>
						</g>
					</g>
				</g>
				<g id="&lt;Group&gt;">
					<path id="&lt;Path&gt;" class="s19" d="m415.5 344.6c-4.8-4.1-25.1 3.3-25.1 3.3h-79.5c0 0-20.2-7.4-25-3.3-4.8 4.2-12.5 16.9-8.7 25.6 0.7 2.1 2.6 3.7 5.1 3.7h136.7c2.6 0 4.4-1.6 5.1-3.7 3.9-8.7-3.8-21.4-8.6-25.6z"/>
					<path id="&lt;Path&gt;" class="s10" d="m411.8 354.5h-122.2c-5.2 0-7.6-6.4-3.7-9.9l4.8-4.1c7.4-6.4 16.8-9.9 26.6-9.9h66.8c9.7 0 19.2 3.5 26.6 9.9l4.8 4.1c3.9 3.5 1.5 9.9-3.7 9.9z"/>
				</g>
				<g id="&lt;Group&gt;">
					<path id="&lt;Path&gt;" class="s8" d="m424.2 380.8h-147.1c-1.3 0-2.5-1.1-2.5-2.5 0-1.4 1.2-2.5 2.5-2.5h147.1c1.4 0 2.5 1.1 2.5 2.5 0 1.4-1.1 2.5-2.5 2.5z"/>
				</g>
				<g id="&lt;Group&gt;">
					<g id="&lt;Group&gt;">
						<path id="&lt;Path&gt;" class="s8" d="m410.7 445.6h-120l0.6-8.7h118.8z"/>
					</g>
					<g id="&lt;Group&gt;">
						<path id="&lt;Path&gt;" class="s20" d="m410.1 436.9h-118.8l1.7-2.4h115.3z"/>
					</g>
				</g>
				<g id="&lt;Group&gt;">
					<g id="&lt;Group&gt;">
						<path id="&lt;Path&gt;" class="s8" d="m383.6 415.5h-65.8l0.1-4.1h65.6z"/>
					</g>
					<g id="&lt;Group&gt;">
						<path id="&lt;Path&gt;" class="s20" d="m383.5 411.4h-65.6l1.8-1.3h61.9z"/>
					</g>
				</g>
			</g>
			<g id="&lt;Group&gt;">
				<g id="&lt;Group&gt;">
					<path id="&lt;Path&gt;" class="s7" d="m572.2 478c-10-6-35.9-10.3-66.3-10.3-30.5 0-56.4 4.3-66.4 10.3h-4.4v5.4c0 8.7 31.7 15.7 70.8 15.7 39 0 70.7-7 70.7-15.7v-5.4z"/>
					<g id="&lt;Group&gt;">
						<path id="&lt;Path&gt;" class="s8" d="m576.6 478c0 8.6-31.7 15.6-70.7 15.6-39.1 0-70.8-7-70.8-15.6 0-8.7 31.7-15.7 70.8-15.7 39 0 70.7 7 70.7 15.7z"/>
					</g>
					<path id="&lt;Path&gt;" class="s7" d="m510.2 257h-8.7l-76.3 7.7 61.5 14.8c8.7 2 14.8 9.8 14.8 18.8v179.8c0 1.1 2 2 4.4 2 2.3 0 4.3-0.9 4.3-2v-179.8c0-9 6.1-16.8 14.8-18.8l61.5-14.8z"/>
					<g id="&lt;Group&gt;">
						<g id="&lt;Group&gt;">
							<path id="&lt;Path&gt;" class="s8" d="m576.4 258.3c-16-2-41.7-3.3-70.5-3.3-28.9 0-54.5 1.3-70.6 3.3h-17.5v5c0 4.6 39.4 8.3 88.1 8.3 48.6 0 88-3.7 88-8.3v-5z"/>
						</g>
						<path id="&lt;Path&gt;" class="s7" d="m593.9 258.3c0 4.6-39.4 8.3-88 8.3-48.7 0-88.1-3.7-88.1-8.3 0-4.6 39.4-8.3 88.1-8.3 48.6 0 88 3.7 88 8.3z"/>
						<path id="&lt;Path&gt;" class="s21" d="m578.9 249.4c-1.1-0.5-3 1.5-4.5 3.6-15-2-40.1-3.3-68.5-3.3-28.5 0-53.6 1.3-68.5 3.3-1.6-2.1-3.4-4.1-4.6-3.6-2.3 1.1-10 5.5-10 7.8 0 4.2 37.2 7.5 83.1 7.5 45.8 0 83-3.3 83-7.5 0-2.3-7.7-6.7-10-7.8z"/>
						<path id="&lt;Path&gt;" class="s10" d="m580.4 250.7c0 3.6-33.4 6.5-74.5 6.5-41.2 0-74.6-2.9-74.6-6.5 0-3.6 33.4-6.5 74.6-6.5 41.1 0 74.5 2.9 74.5 6.5z"/>
					</g>
				</g>
				<g id="&lt;Group&gt;">
					<path id="&lt;Path&gt;" class="s22" d="m509.7 199l0.7-9.6h-6.6-6.6l0.7 9.6c0.2 2.9-0.3 5.9-1.6 8.5l-0.8 1.7c-3.2 6.7-4.3 14.2-3.3 21.6l2.7 18.8c0 0.6 4 1.1 8.9 1.1 4.9 0 8.9-0.5 8.9-1.1l2.6-18.8c1.1-7.4-0.1-14.9-3.3-21.6l-0.7-1.7c-1.3-2.6-1.8-5.6-1.6-8.5z"/>
					<g id="&lt;Group&gt;">
						<path id="&lt;Path&gt;" class="s23" d="m510.4 189.5c0 0.3-3 0.6-6.6 0.6-3.6 0-6.6-0.3-6.6-0.6 0-0.4 3-0.7 6.6-0.7 3.6 0 6.6 0.3 6.6 0.7z"/>
					</g>
				</g>
				<g id="&lt;Group&gt;">
					<path id="&lt;Path&gt;" class="s24" d="m540.8 248.8c0 0.6-4.4 1.2-9.9 1.2-5.5 0-10-0.6-10-1.2 0-0.7 4.5-1.3 10-1.3 5.5 0 9.9 0.6 9.9 1.3z"/>
					<path id="&lt;Path&gt;" class="s25" d="m543.5 220.1h-12.6-12.6c0.5 7 5.6 11.2 9.2 13.3 1.7 1 2.8 2.8 2.8 4.7v10.7h1.2v-10.7c0-1.9 1.1-3.7 2.8-4.7 3.5-2.1 8.7-6.3 9.2-13.3z"/>
					<path id="&lt;Path&gt;" class="s23" d="m543.5 220.1c0 0.6-5.7 1.2-12.6 1.2-7 0-12.6-0.6-12.6-1.2 0-0.6 5.6-1.2 12.6-1.2 6.9 0 12.6 0.6 12.6 1.2z"/>
				</g>
			</g>
			<g id="&lt;Group&gt;">
				<path id="&lt;Path&gt;" class="s7" d="m249.5 481.5c-7.2-4.3-25.9-7.3-47.8-7.3-22 0-40.7 3-47.9 7.3h-3.2v4c0 6.2 22.9 11.3 51.1 11.3 28.1 0 51-5.1 51-11.3v-4z"/>
				<g id="&lt;Group&gt;">
					<path id="&lt;Path&gt;" class="s8" d="m252.7 481.5c0 6.3-22.9 11.4-51 11.4-28.2 0-51.1-5.1-51.1-11.4 0-6.2 22.9-11.3 51.1-11.3 28.1 0 51 5.1 51 11.3z"/>
				</g>
				<g id="&lt;Group&gt;">
					<path id="&lt;Path&gt;" class="s26" d="m281.7 67.1c-11.1-7.5-4.4-22.9-7.6-23-3.1-0.2-7.2 12-15.3 20-13.4 13.2-25.5 14.5-33.1 18.7-6 3.3-24.2 19.5-21.6 43.7 2.3 21.7 5.6 44.1 5.4 64.9-0.4 51.8-20.1 134-14.5 205.8 1.6 20.7 9 66.4 4.5 76"/>
				</g>
				<path id="&lt;Path&gt;" class="s7" d="m164.3 129.7c1.3 1.5 3.6 1.8 5.2 0.5l113.9-90.9c1.6-1.3 1.9-3.6 0.6-5.2-1.3-1.6-3.6-1.8-5.2-0.5l-113.9 90.9c-1.6 1.3-1.8 3.6-0.6 5.2z"/>
				<path id="&lt;Path&gt;" class="s9" d="m196.3 108.9l10.3-8.3v-9.4l-10.3 8.3z"/>
				<path id="&lt;Path&gt;" class="s7" d="m201.7 95.5c-2.1 0-3.7 1.6-3.7 3.7v382c0 0.5 1.6 0.9 3.7 0.9 2 0 3.6-0.4 3.6-0.9v-382c0-2.1-1.6-3.7-3.6-3.7z"/>
				<path id="&lt;Path&gt;" class="s27" d="m203.2 99.5c0 0.8-0.7 1.5-1.5 1.5-0.9 0-1.6-0.7-1.6-1.5 0-0.8 0.7-1.5 1.6-1.5 0.8 0 1.5 0.7 1.5 1.5z"/>
				<g id="&lt;Group&gt;">
					<path id="&lt;Path&gt;" class="s23" d="m294.8 62.6l-5.8 4.5-24.6-31.7c-1.3-1.6-1-3.9 0.6-5.1 1.6-1.3 3.9-1 5.2 0.6z"/>
					<path id="&lt;Path&gt;" class="s9" d="m289.5 56.1l-5.6 4.4-11.8-15.1h9.1z"/>
					<g id="&lt;Group&gt;">
						<path id="&lt;Path&gt;" class="s28" d="m283.8 54.4c-5 3.9-8.8 23.6 7.7 44.9l16.9-13.2 17-13.1c-16.6-21.3-36.6-22.4-41.6-18.6z"/>
						<path id="&lt;Path&gt;" class="s23" d="m325.4 73c0.8 1-6.1 7.8-15.5 15-9.3 7.3-17.6 12.3-18.4 11.3-0.8-1.1 6.1-7.8 15.4-15.1 9.4-7.3 17.6-12.3 18.5-11.2z"/>
						<path id="&lt;Path&gt;" class="s27" d="m306.9 84.2q-2.8 2.2-5.3 4.3c1.7 1.2 4.9 0.6 7.5-1.5 2.7-2 4-4.9 3.3-6.9q-2.6 1.9-5.5 4.1z"/>
					</g>
					<path id="&lt;Path&gt;" class="s23" d="m295.4 69.3c-2.8 2.2-6.8 1.7-8.9-1.1l-8.7-11.1c-0.9-1.1-0.7-2.8 0.5-3.6l5.9-4.7c1.2-0.8 2.8-0.6 3.7 0.5l8.6 11.1c2.2 2.8 1.7 6.8-1.1 8.9z"/>
					<path id="&lt;Path&gt;" class="s27" d="m293.6 64.7c0.5 0.6 0.4 1.6-0.2 2.1-0.7 0.5-1.6 0.4-2.1-0.3-0.5-0.6-0.4-1.6 0.3-2.1 0.6-0.5 1.5-0.4 2 0.3z"/>
				</g>
			</g>
		</g>
		<g id="&lt;Group&gt;">
			<path id="&lt;Path&gt;" class="s10" d="m493.9 141.3c0 26-21.2 47.2-47.2 47.2-26.1 0-47.2-21.2-47.2-47.2 0-26.1 21.1-47.2 47.2-47.2 26 0 47.2 21.1 47.2 47.2z"/>
			<g id="&lt;Group&gt;">
				<path id="&lt;Compound Path&gt;" fill-rule="evenodd" class="s27" d="m426.6 133.2c0-5.7 3.5-9.4 8.5-9.4 5 0 8.4 3.6 8.4 9.4 0 5.8-3.4 9.4-8.4 9.4-5 0-8.5-3.6-8.5-9.4zm12.1 0c0-3.6-1.4-5.4-3.6-5.4-2.1 0-3.5 1.8-3.5 5.4 0 3.6 1.4 5.4 3.5 5.4 2.2 0 3.6-1.7 3.6-5.4zm16.7-9h5.8l-23.3 34.1h-5.8zm-5.6 25.1c0-5.8 3.6-9.4 8.5-9.4 4.9 0 8.4 3.6 8.4 9.4 0 5.7-3.5 9.4-8.4 9.4-4.9 0-8.5-3.7-8.5-9.4zm12 0c0-3.6-1.4-5.4-3.5-5.4-2.1 0-3.6 1.7-3.6 5.4 0 3.6 1.5 5.4 3.6 5.4 2.1 0 3.5-1.8 3.5-5.4z"/>
			</g>
		</g>
	</g>
</svg>